<svg width="32" height="32" viewBox="0 0 32 32" fill="none" xmlns="http://www.w3.org/2000/svg">
<path d="M8.88889 6.5641C8.88889 6.99933 8.70159 7.41673 8.36819 7.72448C8.03479 8.03224 7.58261 8.20513 7.11111 8.20513C6.63962 8.20513 6.18743 8.03224 5.85403 7.72448C5.52063 7.41673 5.33333 6.99933 5.33333 6.5641C5.33333 6.12888 5.52063 5.71147 5.85403 5.40372C6.18743 5.09597 6.63962 4.92308 7.11111 4.92308C7.58261 4.92308 8.03479 5.09597 8.36819 5.40372C8.70159 5.71147 8.88889 6.12888 8.88889 6.5641ZM7.11111 13.1282C7.58261 13.1282 8.03479 12.9553 8.36819 12.6476C8.70159 12.3398 8.88889 11.9224 8.88889 11.4872C8.88889 11.052 8.70159 10.6346 8.36819 10.3268C8.03479 10.019 7.58261 9.84615 7.11111 9.84615C6.63962 9.84615 6.18743 10.019 5.85403 10.3268C5.52063 10.6346 5.33333 11.052 5.33333 11.4872C5.33333 11.9224 5.52063 12.3398 5.85403 12.6476C6.18743 12.9553 6.63962 13.1282 7.11111 13.1282ZM8.88889 16.4103C8.88889 16.8455 8.70159 17.2629 8.36819 17.5706C8.03479 17.8784 7.58261 18.0513 7.11111 18.0513C6.63962 18.0513 6.18743 17.8784 5.85403 17.5706C5.52063 17.2629 5.33333 16.8455 5.33333 16.4103C5.33333 15.975 5.52063 15.5576 5.85403 15.2499C6.18743 14.9421 6.63962 14.7692 7.11111 14.7692C7.58261 14.7692 8.03479 14.9421 8.36819 15.2499C8.70159 15.5576 8.88889 15.975 8.88889 16.4103ZM8.88889 21.3333C8.88889 21.7686 8.70159 22.186 8.36819 22.4937C8.03479 22.8015 7.58261 22.9744 7.11111 22.9744C6.63962 22.9744 6.18743 22.8015 5.85403 22.4937C5.52063 22.186 5.33333 21.7686 5.33333 21.3333C5.33333 20.8981 5.52063 20.4807 5.85403 20.173C6.18743 19.8652 6.63962 19.6923 7.11111 19.6923C7.58261 19.6923 8.03479 19.8652 8.36819 20.173C8.70159 20.4807 8.88889 20.8981 8.88889 21.3333ZM7.11111 27.8974C7.58261 27.8974 8.03479 27.7245 8.36819 27.4168C8.70159 27.109 8.88889 26.6916 8.88889 26.2564C8.88889 25.8212 8.70159 25.4038 8.36819 25.096C8.03479 24.7883 7.58261 24.6154 7.11111 24.6154C6.63962 24.6154 6.18743 24.7883 5.85403 25.096C5.52063 25.4038 5.33333 25.8212 5.33333 26.2564C5.33333 26.6916 5.52063 27.109 5.85403 27.4168C6.18743 27.7245 6.63962 27.8974 7.11111 27.8974ZM19.5556 22.9744C20.0271 22.9744 20.4792 22.8015 20.8126 22.4937C21.146 22.186 21.3333 21.7686 21.3333 21.3333C21.3333 20.8981 21.146 20.4807 20.8126 20.173C20.4792 19.8652 20.0271 19.6923 19.5556 19.6923C19.0841 19.6923 18.6319 19.8652 18.2985 20.173C17.9651 20.4807 17.7778 20.8981 17.7778 21.3333C17.7778 21.7686 17.9651 22.186 18.2985 22.4937C18.6319 22.8015 19.0841 22.9744 19.5556 22.9744ZM24.8889 22.9744C25.3604 22.9744 25.8126 22.8015 26.146 22.4937C26.4794 22.186 26.6667 21.7686 26.6667 21.3333C26.6667 20.8981 26.4794 20.4807 26.146 20.173C25.8126 19.8652 25.3604 19.6923 24.8889 19.6923C24.4174 19.6923 23.9652 19.8652 23.6318 20.173C23.2984 20.4807 23.1111 20.8981 23.1111 21.3333C23.1111 21.7686 23.2984 22.186 23.6318 22.4937C23.9652 22.8015 24.4174 22.9744 24.8889 22.9744ZM24.8889 18.0513C25.3604 18.0513 25.8126 17.8784 26.146 17.5706C26.4794 17.2629 26.6667 16.8455 26.6667 16.4103C26.6667 15.975 26.4794 15.5576 26.146 15.2499C25.8126 14.9421 25.3604 14.7692 24.8889 14.7692C24.4174 14.7692 23.9652 14.9421 23.6318 15.2499C23.2984 15.5576 23.1111 15.975 23.1111 16.4103C23.1111 16.8455 23.2984 17.2629 23.6318 17.5706C23.9652 17.8784 24.4174 18.0513 24.8889 18.0513ZM21.3333 16.4103C21.3333 16.8455 21.146 17.2629 20.8126 17.5706C20.4792 17.8784 20.0271 18.0513 19.5556 18.0513C19.0841 18.0513 18.6319 17.8784 18.2985 17.5706C17.9651 17.2629 17.7778 16.8455 17.7778 16.4103C17.7778 15.975 17.9651 15.5576 18.2985 15.2499C18.6319 14.9421 19.0841 14.7692 19.5556 14.7692C20.0271 14.7692 20.4792 14.9421 20.8126 15.2499C21.146 15.5576 21.3333 15.975 21.3333 16.4103ZM24.8889 13.1282C25.3604 13.1282 25.8126 12.9553 26.146 12.6476C26.4794 12.3398 26.6667 11.9224 26.6667 11.4872C26.6667 11.052 26.4794 10.6346 26.146 10.3268C25.8126 10.019 25.3604 9.84615 24.8889 9.84615C24.4174 9.84615 23.9652 10.019 23.6318 10.3268C23.2984 10.6346 23.1111 11.052 23.1111 11.4872C23.1111 11.9224 23.2984 12.3398 23.6318 12.6476C23.9652 12.9553 24.4174 13.1282 24.8889 13.1282ZM21.3333 11.4872C21.3333 11.9224 21.146 12.3398 20.8126 12.6476C20.4792 12.9553 20.0271 13.1282 19.5556 13.1282C19.0841 13.1282 18.6319 12.9553 18.2985 12.6476C17.9651 12.3398 17.7778 11.9224 17.7778 11.4872C17.7778 11.052 17.9651 10.6346 18.2985 10.3268C18.6319 10.019 19.0841 9.84615 19.5556 9.84615C20.0271 9.84615 20.4792 10.019 20.8126 10.3268C21.146 10.6346 21.3333 11.052 21.3333 11.4872ZM19.5556 4.92308V3.69231C19.5556 2.71305 19.1341 1.77389 18.384 1.08145C17.6338 0.38901 16.6164 0 15.5556 0H4C2.93913 0 1.92172 0.38901 1.17157 1.08145C0.421427 1.77389 0 2.71305 0 3.69231V30.7692C0 31.4486 0.597333 32 1.33333 32H30.6667C31.0203 32 31.3594 31.8703 31.6095 31.6395C31.8595 31.4087 32 31.0957 32 30.7692V8.61539C32 7.63612 31.5786 6.69697 30.8284 6.00453C30.0783 5.31209 29.0609 4.92308 28 4.92308H19.5556ZM2.66667 3.69231C2.66667 3.36589 2.80714 3.05284 3.05719 2.82202C3.30724 2.59121 3.64638 2.46154 4 2.46154H15.5556C15.9092 2.46154 16.2483 2.59121 16.4984 2.82202C16.7484 3.05284 16.8889 3.36589 16.8889 3.69231V4.92308H16.4444C15.3836 4.92308 14.3662 5.31209 13.616 6.00453C12.8659 6.69697 12.4444 7.63612 12.4444 8.61539V29.5385H2.66667V3.69231ZM20.4444 29.5385V27.0769H24V29.5385H20.4444ZM26.6667 25.8462C26.6667 25.5197 26.5262 25.2067 26.2761 24.9759C26.0261 24.7451 25.687 24.6154 25.3333 24.6154H19.1111C18.7575 24.6154 18.4184 24.7451 18.1683 24.9759C17.9183 25.2067 17.7778 25.5197 17.7778 25.8462V29.5385H15.1111V8.61539C15.1111 8.28896 15.2516 7.97591 15.5016 7.7451C15.7517 7.51429 16.0908 7.38462 16.4444 7.38462H28C28.3536 7.38462 28.6928 7.51429 28.9428 7.7451C29.1929 7.97591 29.3333 8.28896 29.3333 8.61539V29.5385H26.6667V25.8462Z" fill="#4A4950"/>
</svg>
