<svg width="28" height="29" viewBox="0 0 28 29" fill="none" xmlns="http://www.w3.org/2000/svg">
<path d="M7.60853 12.5773L8.53253 12.708L7.60853 12.5773ZM7.58987 12.708L6.66587 12.5773L7.58987 12.708ZM20.3915 12.5773L21.3155 12.4467L20.3915 12.5773ZM20.4101 12.708L19.4861 12.8387L20.4101 12.708ZM17.7333 23.8333V24.7667C17.9809 24.7667 18.2183 24.6683 18.3933 24.4933C18.5683 24.3183 18.6667 24.0809 18.6667 23.8333H17.7333ZM10.2667 23.8333H9.33333C9.33333 24.0809 9.43167 24.3183 9.6067 24.4933C9.78173 24.6683 10.0191 24.7667 10.2667 24.7667V23.8333ZM8.876 17.5856L9.6152 17.0144L8.876 17.5856ZM19.124 17.5856L18.3848 17.0144L19.124 17.5856ZM11.2 28.5H16.8V26.6333H11.2V28.5ZM6.68267 12.4467L6.664 12.5773L8.512 12.8387L8.53067 12.708L6.68267 12.4467ZM14 6.1C12.2206 6.0997 10.5008 6.74145 9.15657 7.90737C7.81234 9.07329 6.93392 10.6851 6.68267 12.4467L8.53067 12.708C8.71895 11.3917 9.37574 10.1876 10.3804 9.31658C11.3852 8.44561 12.6703 7.9663 14 7.96667V6.1ZM21.3173 12.4467C21.0661 10.6851 20.1877 9.07329 18.8434 7.90737C17.4992 6.74145 15.7794 6.0997 14 6.1V7.96667C15.3296 7.96669 16.6145 8.44613 17.6192 9.31704C18.6238 10.1879 19.2807 11.3919 19.4693 12.708L21.3173 12.4467ZM21.336 12.5773L21.3173 12.4467L19.4693 12.708L19.488 12.8387L21.336 12.5773ZM19.8613 18.1568C21.0373 16.6373 21.6309 14.6568 21.336 12.5755L19.488 12.8405C19.5949 13.5746 19.5525 14.3226 19.3632 15.0398C19.174 15.7571 18.8418 16.4287 18.3867 17.0144L19.8613 18.1568ZM16.8 20.8467V23.8333H18.6667V20.8485H16.8V20.8467ZM17.7333 22.9H10.2667V24.7667H17.7333V22.9ZM11.2 23.8333V20.8485H9.33333V23.8333H11.2ZM6.664 12.5773C6.5221 13.5587 6.57956 14.5586 6.83294 15.5173C7.08632 16.476 7.53041 17.3737 8.13867 18.1568L9.61333 17.0144C9.15819 16.4287 8.82604 15.7571 8.63679 15.0398C8.44754 14.3226 8.40509 13.5746 8.512 12.8405L6.664 12.5755V12.5773ZM11.2 20.8467C11.2 19.3104 10.3824 18.0037 9.61333 17.0125L8.13867 18.1549C8.8536 19.0789 9.33333 19.9619 9.33333 20.8467H11.2ZM18.3867 17.0125C17.6157 18.0056 16.8 19.3104 16.8 20.8467H18.6667C18.6667 19.9619 19.1464 19.0789 19.8613 18.1549L18.3867 17.0125ZM13.0667 0.5V4.23333H14.9333V0.5H13.0667ZM0 15.4333H3.73333V13.5667H0V15.4333ZM24.2667 15.4333H28V13.5667H24.2667V15.4333ZM6.2608 7.30587L3.4608 4.50587L2.1392 5.82747L4.9392 8.62747L6.2608 7.30587ZM23.0608 8.62747L25.8608 5.82747L24.5392 4.50587L21.7392 7.30587L23.0608 8.62747Z" fill="#4A4950"/>
</svg>
