<svg width="28" height="28" viewBox="0 0 28 28" fill="none" xmlns="http://www.w3.org/2000/svg">
<path d="M19.2353 7.82661C19.2353 8.16921 19.1674 8.50845 19.0356 8.82498C18.9038 9.1415 18.7106 9.4291 18.467 9.67136C18.2235 9.91361 17.9343 10.1058 17.6161 10.2369C17.2978 10.368 16.9567 10.4355 16.6123 10.4355C16.2678 10.4355 15.9267 10.368 15.6085 10.2369C15.2903 10.1058 15.0011 9.91361 14.7576 9.67136C14.514 9.4291 14.3208 9.1415 14.189 8.82498C14.0571 8.50845 13.9893 8.16921 13.9893 7.82661C13.9893 7.13469 14.2656 6.47111 14.7576 5.98186C15.2495 5.4926 15.9166 5.21774 16.6123 5.21774C17.3079 5.21774 17.9751 5.4926 18.467 5.98186C18.9589 6.47111 19.2353 7.13469 19.2353 7.82661ZM17.4866 7.82661C17.4866 7.59597 17.3945 7.37478 17.2305 7.21169C17.0666 7.0486 16.8442 6.95698 16.6123 6.95698C16.3804 6.95698 16.158 7.0486 15.994 7.21169C15.8301 7.37478 15.738 7.59597 15.738 7.82661C15.738 8.05724 15.8301 8.27844 15.994 8.44152C16.158 8.60461 16.3804 8.69623 16.6123 8.69623C16.8442 8.69623 17.0666 8.60461 17.2305 8.44152C17.3945 8.27844 17.4866 8.05724 17.4866 7.82661ZM0 5.21774C0 3.83391 0.552701 2.50676 1.53651 1.52824C2.52033 0.549724 3.85466 0 5.24599 0H19.2353C20.6266 0 21.9609 0.549724 22.9448 1.52824C23.9286 2.50676 24.4813 3.83391 24.4813 5.21774V10.4407C23.885 10.4685 23.2922 10.6007 22.7326 10.839V5.21774C22.7326 4.29518 22.3641 3.41042 21.7083 2.75807C21.0524 2.10573 20.1628 1.73925 19.2353 1.73925H5.24599C4.31844 1.73925 3.42888 2.10573 2.773 2.75807C2.11713 3.41042 1.74866 4.29518 1.74866 5.21774V20.5683C1.74895 20.6367 1.76949 20.7035 1.80772 20.7603C1.84595 20.8171 1.90017 20.8615 1.96361 20.8879C2.02705 20.9142 2.09689 20.9214 2.1644 20.9085C2.23192 20.8956 2.29411 20.8632 2.34321 20.8153L3.75438 19.4309L3.75088 19.4256L5.58348 17.6342L5.9437 17.2829L10.4028 12.9261C10.8933 12.447 11.5532 12.1786 12.2406 12.1786C12.9281 12.1786 13.588 12.447 14.0785 12.9261L17.1299 15.9071L15.8936 17.1385L12.8527 14.1662C12.6892 14.0068 12.4695 13.9176 12.2406 13.9176C12.0118 13.9176 11.792 14.0068 11.6286 14.1662L6.80929 18.8743L3.57252 22.0536C2.24703 23.3546 0 22.4189 0 20.5683V5.21774ZM0.699465 24.4103C1.34472 24.7303 2.15085 24.993 2.82759 24.8451C3.2665 24.7477 3.83656 24.5095 4.47657 24.2416C6.02414 23.5929 7.97914 22.7754 9.48125 23.3772C10.5951 23.8224 10.5025 25.0834 10.1895 25.6904C10.1282 25.8052 10.1755 25.9687 10.3031 25.9982C10.9426 26.1275 11.5956 26.1789 12.2476 26.1513C12.2547 26.0692 12.2681 25.9878 12.2878 25.9078L12.9436 23.3024C13.1113 22.6304 13.4609 22.0168 13.9543 21.5284L22.4004 13.1278C22.7032 12.822 23.0639 12.5789 23.4617 12.4124C23.8594 12.2459 24.2864 12.1594 24.718 12.1578C25.1495 12.1562 25.5771 12.2396 25.9761 12.4032C26.3751 12.5668 26.7376 12.8073 27.0427 13.1108C27.3478 13.4144 27.5894 13.775 27.7537 14.1719C27.918 14.5688 28.0017 14.9942 28 15.4234C27.9982 15.8526 27.9111 16.2772 27.7435 16.6728C27.576 17.0684 27.3314 17.427 27.0238 17.7281L18.5778 26.1269C18.0858 26.6165 17.4693 26.964 16.7941 27.1322L14.6573 27.6627C12.697 28.2332 9.77152 28.0488 8.86397 27.3444C8.07882 26.7357 8.04734 25.8017 8.31139 25.1808C8.37084 25.0417 8.26593 24.8625 8.11729 24.8851C7.2517 25.0069 6.54349 25.3199 5.84403 25.6278C4.82106 26.08 3.82258 26.52 2.38867 26.3426C1.14537 26.1896 0.452903 25.5443 0.0716949 24.9077C-0.141642 24.5529 0.328748 24.226 0.701213 24.4103H0.699465Z" fill="#4A4950"/>
</svg>
