<svg width="18" height="29" viewBox="0 0 18 29" fill="none" xmlns="http://www.w3.org/2000/svg">
<path d="M0.0273438 25.2881L0.425071 28.82L3.00234 26.37L7.40916 14.279C6.32734 14.0086 5.3728 13.4677 4.59325 12.72L0.0273438 25.2881ZM13.4069 12.72C12.6273 13.4677 11.6569 14.0086 10.591 14.279L14.9978 26.37L17.5751 28.82L17.9887 25.2881L13.4069 12.72ZM13.7728 8.13814C13.7728 6.06996 12.4364 4.31996 10.591 3.65178V0.183594H7.40916V3.65178C5.56371 4.31996 4.22734 6.06996 4.22734 8.13814C4.22734 10.779 6.35916 12.9109 9.00007 12.9109C11.641 12.9109 13.7728 10.779 13.7728 8.13814ZM9.00007 9.72905C8.12507 9.72905 7.40916 9.01314 7.40916 8.13814C7.40916 7.26314 8.12507 6.54723 9.00007 6.54723C9.87507 6.54723 10.591 7.26314 10.591 8.13814C10.591 9.01314 9.87507 9.72905 9.00007 9.72905Z" fill="#4A4950"/>
</svg>
