<svg width="28" height="29" viewBox="0 0 28 29" fill="none" xmlns="http://www.w3.org/2000/svg">
<path d="M0 26.4996H28V28.4996H0V26.4996ZM25 9.49957C25.2652 9.49957 25.5196 9.39422 25.7071 9.20668C25.8946 9.01915 26 8.76479 26 8.49957V5.49957C25.9999 5.29406 25.9365 5.09356 25.8184 4.92537C25.7003 4.75717 25.5333 4.62945 25.34 4.55957L14.34 0.559575C14.1203 0.480142 13.8797 0.480142 13.66 0.559575L2.66 4.55957C2.46673 4.62945 2.29968 4.75717 2.18159 4.92537C2.06349 5.09356 2.00009 5.29406 2 5.49957V8.49957C2 8.76479 2.10536 9.01915 2.29289 9.20668C2.48043 9.39422 2.73478 9.49957 3 9.49957H4V22.4996H2V24.4996H26V22.4996H24V9.49957H25ZM4 6.19957L14 2.55957L24 6.19957V7.49957H4V6.19957ZM16 22.4996H12V9.49957H16V22.4996ZM6 9.49957H10V22.4996H6V9.49957ZM22 22.4996H18V9.49957H22V22.4996Z" fill="#4A4950"/>
</svg>
