<svg width="32" height="32" viewBox="0 0 32 32" fill="none" xmlns="http://www.w3.org/2000/svg">
<path d="M29.8866 27.153V16.4565C29.8867 15.7124 29.733 14.976 29.4348 14.2926C29.1367 13.6091 28.7004 12.993 28.1527 12.4819L17.9501 2.95814C17.4362 2.4783 16.7559 2.21094 16.0488 2.21094C15.3416 2.21094 14.6613 2.4783 14.1475 2.95814L3.94482 12.4819C3.39715 12.993 2.96088 13.6091 2.66274 14.2926C2.3646 14.976 2.21086 15.7124 2.21094 16.4565V27.153C2.21094 27.878 2.50252 28.5733 3.02154 29.086C3.54056 29.5986 4.2445 29.8866 4.97851 29.8866H27.119C27.8531 29.8866 28.557 29.5986 29.076 29.086C29.595 28.5733 29.8866 27.878 29.8866 27.153Z" stroke="#4A4950" stroke-width="3.5" stroke-linecap="round" stroke-linejoin="round"/>
</svg>
