<svg width="32" height="32" viewBox="0 0 32 32" fill="none" xmlns="http://www.w3.org/2000/svg">
<path fill-rule="evenodd" clip-rule="evenodd" d="M24.8889 5.64706C24.8889 4.14937 24.327 2.71301 23.3268 1.65399C22.3266 0.594956 20.97 0 19.5556 0H12.4444C11.03 0 9.6734 0.594956 8.67321 1.65399C7.67301 2.71301 7.11111 4.14937 7.11111 5.64706H5.33333C3.91885 5.64706 2.56229 6.24202 1.5621 7.30104C0.561903 8.36007 0 9.79642 0 11.2941V26.3529C0 27.8506 0.561903 29.287 1.5621 30.346C2.56229 31.405 3.91885 32 5.33333 32H26.6667C28.0812 32 29.4377 31.405 30.4379 30.346C31.4381 29.287 32 27.8506 32 26.3529V11.2941C32 9.79642 31.4381 8.36007 30.4379 7.30104C29.4377 6.24202 28.0812 5.64706 26.6667 5.64706H24.8889ZM19.5556 3.76471H12.4444C11.9729 3.76471 11.5208 3.96303 11.1874 4.31603C10.854 4.66904 10.6667 5.14783 10.6667 5.64706H21.3333C21.3333 5.14783 21.146 4.66904 20.8126 4.31603C20.4792 3.96303 20.0271 3.76471 19.5556 3.76471ZM5.33333 9.41177H26.6667C27.1382 9.41177 27.5903 9.61008 27.9237 9.96309C28.2571 10.3161 28.4444 10.7949 28.4444 11.2941V26.3529C28.4444 26.8522 28.2571 27.331 27.9237 27.684C27.5903 28.037 27.1382 28.2353 26.6667 28.2353H5.33333C4.86184 28.2353 4.40965 28.037 4.07625 27.684C3.74286 27.331 3.55556 26.8522 3.55556 26.3529V11.2941C3.55556 10.7949 3.74286 10.3161 4.07625 9.96309C4.40965 9.61008 4.86184 9.41177 5.33333 9.41177Z" fill="#4A4950"/>
</svg>
