<svg width="32" height="32" viewBox="0 0 32 32" fill="none" xmlns="http://www.w3.org/2000/svg">
<path d="M10.6649 10.668H7.10938V14.2235H10.6649V10.668ZM14.2205 10.668H17.776V14.2235H14.2205V10.668ZM24.8872 10.668H21.3316V14.2235H24.8872V10.668Z" fill="#4A4950"/>
<path d="M0 3.55556V32L8.53333 25.6C9.14845 25.1378 9.89689 24.8889 10.6667 24.8889H28.4444C29.3874 24.8889 30.2918 24.5143 30.9586 23.8475C31.6254 23.1807 32 22.2763 32 21.3333V3.55556C32 2.61256 31.6254 1.70819 30.9586 1.0414C30.2918 0.374602 29.3874 0 28.4444 0H3.55556C2.61256 0 1.70819 0.374602 1.0414 1.0414C0.374602 1.70819 0 2.61256 0 3.55556ZM3.55556 24.8889V3.55556H28.4444V21.3333H9.48267C8.71302 21.3313 7.96381 21.581 7.34933 22.0444L3.55556 24.8889Z" fill="#4A4950"/>
</svg>
