<svg width="28" height="29" viewBox="0 0 28 29" fill="none" xmlns="http://www.w3.org/2000/svg">
<path d="M14.14 20.135C14.14 20.289 14.259 20.415 14.4025 20.415H20.8775C21.021 20.415 21.14 20.289 21.14 20.135V18.455C21.14 18.301 21.021 18.175 20.8775 18.175H14.4025C14.259 18.175 14.14 18.301 14.14 18.455V20.135ZM7.3185 20.3485L14.0385 14.7135C14.1715 14.6015 14.1715 14.395 14.0385 14.283L7.3185 8.6515C7.27793 8.617 7.22832 8.59487 7.17555 8.58773C7.12278 8.58059 7.06906 8.58875 7.02079 8.61123C6.97251 8.63371 6.9317 8.66957 6.9032 8.71455C6.8747 8.75953 6.85971 8.81175 6.86 8.865V11.0595C6.86 11.1435 6.895 11.2205 6.9615 11.273L10.8045 14.5L6.9615 17.727C6.93021 17.7532 6.90495 17.7858 6.88743 17.8227C6.86992 17.8595 6.86056 17.8997 6.86 17.9405V20.135C6.86 20.373 7.1365 20.5025 7.3185 20.3485ZM26.88 0.5H1.12C0.5005 0.5 0 1.0005 0 1.62V27.38C0 27.9995 0.5005 28.5 1.12 28.5H26.88C27.4995 28.5 28 27.9995 28 27.38V1.62C28 1.0005 27.4995 0.5 26.88 0.5ZM25.48 25.98H2.52V3.02H25.48V25.98Z" fill="#896EFF"/>
</svg>
