<svg width="32" height="32" viewBox="0 0 32 32" fill="none" xmlns="http://www.w3.org/2000/svg">
<g clip-path="url(#clip0_778_26800)">
<path d="M27.3323 8.64453H4.66563C2.78786 8.64453 1.26562 10.2755 1.26562 12.2874V26.8588C1.26562 28.8707 2.78786 30.5017 4.66563 30.5017H27.3323C29.2101 30.5017 30.7323 28.8707 30.7323 26.8588V12.2874C30.7323 10.2755 29.2101 8.64453 27.3323 8.64453Z" stroke="#4A4950" stroke-width="3.5" stroke-linejoin="round"/>
<path d="M27 8.11056V5.81864C26.9998 5.25651 26.8835 4.70136 26.6592 4.19277C26.4349 3.68419 26.1083 3.23473 25.7026 2.87644C25.2969 2.51816 24.8222 2.25989 24.3122 2.12006C23.8023 1.98024 23.2697 1.9623 22.7525 2.06753L3.90797 5.50159C3.08962 5.6681 2.35134 6.1343 1.82048 6.81978C1.28961 7.50527 0.999436 8.36706 1 9.25653V13" stroke="#4A4950" stroke-width="3.5" stroke-linejoin="round"/>
<path d="M23.9346 22.0017C23.4863 22.0017 23.0481 21.8592 22.6753 21.5924C22.3026 21.3255 22.0121 20.9462 21.8405 20.5025C21.669 20.0587 21.6241 19.5704 21.7115 19.0993C21.799 18.6282 22.0149 18.1955 22.3319 17.8558C22.6489 17.5162 23.0527 17.2849 23.4924 17.1912C23.9321 17.0975 24.3879 17.1456 24.8021 17.3294C25.2162 17.5132 25.5702 17.8245 25.8193 18.2239C26.0684 18.6232 26.2013 19.0928 26.2013 19.5731C26.2013 20.2172 25.9625 20.8349 25.5374 21.2904C25.1123 21.7458 24.5358 22.0017 23.9346 22.0017Z" fill="#4A4950"/>
</g>
<defs>
<clipPath id="clip0_778_26800">
<rect width="32" height="32" fill="white"/>
</clipPath>
</defs>
</svg>
